<svg xmlns="http://www.w3.org/2000/svg" width="1180" height="494" viewBox="0 0 1180 494">
<rect width="100%" height="100%" fill="#ffffff"/>
<style>text{font-family:-apple-system,BlinkMacSystemFont,"Segoe UI","PingFang SC","Microsoft YaHei",sans-serif}.node{fill:#fff;stroke:#d8dee8;stroke-width:1.2}.root{fill:#e8f4ff;stroke:#1a73e8}.chapter{fill:#f7f9fc}.term{fill:#fff}</style>
<rect class="node root" x="28" y="28" rx="12" width="240" height="54"/>
<text x="46" y="61" font-size="16" font-weight="700" fill="#174ea6">卷积神经网络1-课堂练习-终版2026</text>
<path d="M268 90 C330 90, 330 90, 382 90" stroke="#b6c2d4" fill="none"/>
<rect class="node chapter" x="382" y="70" rx="10" width="250" height="42"/>
<text x="400" y="96" font-size="14" font-weight="700" fill="#263238">卷积神经网络1-课堂练习-终版2026</text>
<path d="M632 90 C680 90, 680 90, 722 90" stroke="#d0d7e2" fill="none"/>
<rect class="node term" x="722" y="70" rx="10" width="320" height="40"/>
<text x="740" y="95" font-size="13" font-weight="600" fill="#172b4d">卷积神经网络1-课堂练习-终版2026</text>
<path d="M268 172 C330 172, 330 172, 382 172" stroke="#b6c2d4" fill="none"/>
<rect class="node chapter" x="382" y="152" rx="10" width="250" height="42"/>
<text x="400" y="178" font-size="14" font-weight="700" fill="#263238">第四章 卷积神经网络 - 课堂练习</text>
<path d="M632 172 C680 172, 680 172, 722 172" stroke="#d0d7e2" fill="none"/>
<rect class="node term" x="722" y="152" rx="10" width="320" height="40"/>
<text x="740" y="177" font-size="13" font-weight="600" fill="#172b4d">卷积</text>
<path d="M632 172 C680 172, 680 206, 722 206" stroke="#d0d7e2" fill="none"/>
<rect class="node term" x="722" y="186" rx="10" width="320" height="40"/>
<text x="740" y="211" font-size="13" font-weight="600" fill="#172b4d">感受野</text>
<path d="M632 172 C680 172, 680 240, 722 240" stroke="#d0d7e2" fill="none"/>
<rect class="node term" x="722" y="220" rx="10" width="320" height="40"/>
<text x="740" y="245" font-size="13" font-weight="600" fill="#172b4d">池化</text>
<path d="M632 172 C680 172, 680 274, 722 274" stroke="#d0d7e2" fill="none"/>
<rect class="node term" x="722" y="254" rx="10" width="320" height="40"/>
<text x="740" y="279" font-size="13" font-weight="600" fill="#172b4d">卷积核</text>
<path d="M632 172 C680 172, 680 308, 722 308" stroke="#d0d7e2" fill="none"/>
<rect class="node term" x="722" y="288" rx="10" width="320" height="40"/>
<text x="740" y="313" font-size="13" font-weight="600" fill="#172b4d">步长</text>
<path d="M632 172 C680 172, 680 342, 722 342" stroke="#d0d7e2" fill="none"/>
<rect class="node term" x="722" y="322" rx="10" width="320" height="40"/>
<text x="740" y="347" font-size="13" font-weight="600" fill="#172b4d">激活函数</text>
<path d="M632 172 C680 172, 680 376, 722 376" stroke="#d0d7e2" fill="none"/>
<rect class="node term" x="722" y="356" rx="10" width="320" height="40"/>
<text x="740" y="381" font-size="13" font-weight="600" fill="#172b4d">Valid</text>
<path d="M632 172 C680 172, 680 410, 722 410" stroke="#d0d7e2" fill="none"/>
<rect class="node term" x="722" y="390" rx="10" width="320" height="40"/>
<text x="740" y="415" font-size="13" font-weight="600" fill="#172b4d">填充</text>
</svg>