<svg xmlns="http://www.w3.org/2000/svg" width="1800" height="1220" viewBox="0 0 1800 1220">
<defs><filter id="shadow" x="-15%" y="-20%" width="130%" height="140%"><feDropShadow dx="0" dy="8" stdDeviation="10" flood-color="#0f172a" flood-opacity=".10"/></filter></defs>
<rect width="100%" height="100%" fill="#f8fafc"/>
<circle cx="900" cy="610" r="520" fill="#ffffff" stroke="#eef2f7" stroke-width="2"/>
<circle cx="900" cy="610" r="350" fill="none" stroke="#f1f5f9" stroke-width="2"/>
<style>text{font-family:-apple-system,BlinkMacSystemFont,"Segoe UI","PingFang SC","Microsoft YaHei",sans-serif}.link{stroke-width:3;fill:none;opacity:.36}.thin{stroke-width:1.8;fill:none;opacity:.32}.root{filter:url(#shadow)}.pill{filter:url(#shadow)}</style>
<circle class="root" cx="900.0" cy="610.0" r="105" fill="#e8f4ff" stroke="#1a73e8" stroke-width="3"/>
<text x="900.0" y="593.6" text-anchor="middle" font-size="20" font-weight="850" fill="#174ea6"><tspan x="900.0" dy="0.0">图学习课件_第一</tspan><tspan x="900.0" dy="24.4">部分_20260602</tspan></text>
<text x="900.0" y="668.0" text-anchor="middle" font-size="13" font-weight="700" fill="#64748b">课件总览</text>
<path class="link" d="M900.0 516.0 C900.0 420.0, 900.0 360.0, 900.0 250.0" stroke="#2d9cdb"/>
<rect class="pill" x="770.0" y="217.0" rx="20" width="260" height="66" fill="#ffffff" stroke="#2d9cdb" stroke-width="2.4"/>
<circle cx="795.0" cy="250.0" r="8" fill="#2d9cdb"/>
<text x="912.0" y="254.0" text-anchor="middle" font-size="15" font-weight="820" fill="#123047"><tspan x="912.0" dy="0.0">什么是图？</tspan></text>
<path class="thin" d="M900.0 250.0 C782.4 250.0, 782.4 181.6, 664.7 181.6" stroke="#2d9cdb"/>
<rect x="576.7" y="160.6" rx="16" width="176" height="42" fill="#ffffff" stroke="#dbe4ef" stroke-width="1.4"/>
<text x="664.728047009149" y="185.64717902038876" text-anchor="middle" font-size="13" font-weight="750" fill="#2d9cdb"><tspan x="664.728047009149" dy="0.0">节点 = 对象</tspan></text>
<path class="thin" d="M900.0 250.0 C1017.6 250.0, 1017.6 181.6, 1135.3 181.6" stroke="#2d9cdb"/>
<rect x="1047.3" y="160.6" rx="16" width="176" height="42" fill="#ffffff" stroke="#dbe4ef" stroke-width="1.4"/>
<text x="1135.271952990851" y="185.64717902038882" text-anchor="middle" font-size="13" font-weight="750" fill="#2d9cdb"><tspan x="1135.271952990851" dy="0.0">什么是图？</tspan></text>
<path class="link" d="M960.4 538.0 C1022.1 464.5, 1060.7 418.5, 1131.4 334.2" stroke="#00a676"/>
<rect class="pill" x="1001.4" y="301.2" rx="20" width="260" height="66" fill="#ffffff" stroke="#00a676" stroke-width="2.4"/>
<circle cx="1026.4" cy="334.2" r="8" fill="#00a676"/>
<text x="1143.4035394871541" y="328.9240004771679" text-anchor="middle" font-size="15" font-weight="820" fill="#123047"><tspan x="1143.4035394871541" dy="0.0">遂图数据的基本</tspan><tspan x="1143.4035394871541" dy="18.3">结构</tspan></text>
<path class="thin" d="M1131.4 334.2 C1063.3 334.2, 1063.3 130.6, 995.1 130.6" stroke="#00a676"/>
<rect x="907.1" y="109.6" rx="16" width="176" height="42" fill="#ffffff" stroke="#dbe4ef" stroke-width="1.4"/>
<text x="995.1111136895795" y="126.57280550495744" text-anchor="middle" font-size="13" font-weight="750" fill="#00a676"><tspan x="995.1111136895795" dy="0.0">Vertex = 节</tspan><tspan x="995.1111136895795" dy="15.9">点</tspan></text>
<path class="thin" d="M1131.4 334.2 C1243.5 334.2, 1243.5 433.1, 1355.6 433.1" stroke="#00a676"/>
<rect x="1267.6" y="412.1" rx="16" width="176" height="42" fill="#ffffff" stroke="#dbe4ef" stroke-width="1.4"/>
<text x="1355.5686581103612" y="429.03259808350344" text-anchor="middle" font-size="13" font-weight="750" fill="#00a676"><tspan x="1355.5686581103612" dy="0.0">遂图数据的基</tspan><tspan x="1355.5686581103612" dy="15.9">本结构</tspan></text>
<path class="link" d="M992.6 593.7 C1087.1 577.0, 1146.2 566.6, 1254.5 547.5" stroke="#f59e0b"/>
<rect class="pill" x="1124.5" y="514.5" rx="20" width="260" height="66" fill="#ffffff" stroke="#f59e0b" stroke-width="2.4"/>
<circle cx="1149.5" cy="547.5" r="8" fill="#f59e0b"/>
<text x="1266.5307910843949" y="542.1866560399051" text-anchor="middle" font-size="15" font-weight="820" fill="#123047"><tspan x="1266.5307910843949" dy="0.0">图数据的基本结</tspan><tspan x="1266.5307910843949" dy="18.3">构</tspan></text>
<path class="thin" d="M1254.5 547.5 C1267.8 547.5, 1267.8 303.9, 1281.0 303.9" stroke="#f59e0b"/>
<rect x="1193.0" y="282.9" rx="16" width="176" height="42" fill="#ffffff" stroke="#dbe4ef" stroke-width="1.4"/>
<text x="1280.9906332323706" y="299.85966986668774" text-anchor="middle" font-size="13" font-weight="750" fill="#f59e0b"><tspan x="1280.9906332323706" dy="0.0">Vertex = 节</tspan><tspan x="1280.9906332323706" dy="15.9">点</tspan></text>
<path class="thin" d="M1254.5 547.5 C1308.6 547.5, 1308.6 767.3, 1362.7 767.3" stroke="#f59e0b"/>
<rect x="1274.7" y="746.3" rx="16" width="176" height="42" fill="#ffffff" stroke="#dbe4ef" stroke-width="1.4"/>
<text x="1362.6997250183724" y="763.2549566101155" text-anchor="middle" font-size="13" font-weight="750" fill="#f59e0b"><tspan x="1362.6997250183724" dy="0.0">图数据的基本</tspan><tspan x="1362.6997250183724" dy="15.9">结构</tspan></text>
<path class="link" d="M981.4 657.0 C1064.5 705.0, 1116.5 735.0, 1211.8 790.0" stroke="#ef476f"/>
<rect class="pill" x="1081.8" y="757.0" rx="20" width="260" height="66" fill="#ffffff" stroke="#ef476f" stroke-width="2.4"/>
<circle cx="1106.8" cy="790.0" r="8" fill="#ef476f"/>
<text x="1223.769145362398" y="794.0" text-anchor="middle" font-size="15" font-weight="820" fill="#123047"><tspan x="1223.769145362398" dy="0.0">少图的分类</tspan></text>
<path class="thin" d="M1211.8 790.0 C1300.2 790.0, 1300.2 620.4, 1388.6 620.4" stroke="#ef476f"/>
<rect x="1300.6" y="599.4" rx="16" width="176" height="42" fill="#ffffff" stroke="#dbe4ef" stroke-width="1.4"/>
<text x="1388.6004012464966" y="624.4249224017503" text-anchor="middle" font-size="13" font-weight="750" fill="#ef476f"><tspan x="1388.6004012464966" dy="0.0">节点 = 对象</tspan></text>
<path class="thin" d="M1211.8 790.0 C1182.5 790.0, 1182.5 1027.9, 1153.3 1027.9" stroke="#ef476f"/>
<rect x="1065.3" y="1006.9" rx="16" width="176" height="42" fill="#ffffff" stroke="#dbe4ef" stroke-width="1.4"/>
<text x="1153.3284482556458" y="1031.9278985778608" text-anchor="middle" font-size="13" font-weight="750" fill="#ef476f"><tspan x="1153.3284482556458" dy="0.0">少图的分类</tspan></text>
<path class="link" d="M932.1 698.3 C965.0 788.5, 985.5 844.9, 1023.1 948.3" stroke="#7c3aed"/>
<rect class="pill" x="893.1" y="915.3" rx="20" width="260" height="66" fill="#ffffff" stroke="#7c3aed" stroke-width="2.4"/>
<circle cx="918.1" cy="948.3" r="8" fill="#7c3aed"/>
<text x="1035.1272515972407" y="952.289343482927" text-anchor="middle" font-size="15" font-weight="820" fill="#123047"><tspan x="1035.1272515972407" dy="0.0">图的度和邻居</tspan></text>
<path class="thin" d="M1023.1 948.3 C1145.4 948.3, 1145.4 932.1, 1267.6 932.1" stroke="#7c3aed"/>
<rect x="1179.6" y="911.1" rx="16" width="176" height="42" fill="#ffffff" stroke="#dbe4ef" stroke-width="1.4"/>
<text x="1267.588611328793" y="936.0522378849271" text-anchor="middle" font-size="13" font-weight="750" fill="#7c3aed"><tspan x="1267.588611328793" dy="0.0">节点 = 对象</tspan></text>
<path class="thin" d="M1023.1 948.3 C924.3 948.3, 924.3 1093.0, 825.4 1093.0" stroke="#7c3aed"/>
<rect x="737.4" y="1072.0" rx="16" width="176" height="42" fill="#ffffff" stroke="#dbe4ef" stroke-width="1.4"/>
<text x="825.4219751220094" y="1096.9877320498088" text-anchor="middle" font-size="13" font-weight="750" fill="#7c3aed"><tspan x="825.4219751220094" dy="0.0">图的度和邻居</tspan></text>
<path class="link" d="M867.9 698.3 C835.0 788.5, 814.5 844.9, 776.9 948.3" stroke="#118ab2"/>
<rect class="pill" x="646.9" y="915.3" rx="20" width="260" height="66" fill="#ffffff" stroke="#118ab2" stroke-width="2.4"/>
<circle cx="671.9" cy="948.3" r="8" fill="#118ab2"/>
<text x="788.8727484027593" y="952.289343482927" text-anchor="middle" font-size="15" font-weight="820" fill="#123047"><tspan x="788.8727484027593" dy="0.0">邻接矩阵</tspan></text>
<path class="thin" d="M776.9 948.3 C875.7 948.3, 875.7 1093.0, 974.6 1093.0" stroke="#118ab2"/>
<rect x="886.6" y="1072.0" rx="16" width="176" height="42" fill="#ffffff" stroke="#dbe4ef" stroke-width="1.4"/>
<text x="974.5780248779907" y="1096.9877320498088" text-anchor="middle" font-size="13" font-weight="750" fill="#118ab2"><tspan x="974.5780248779907" dy="0.0">节点 = 对象</tspan></text>
<path class="thin" d="M776.9 948.3 C654.6 948.3, 654.6 932.1, 532.4 932.1" stroke="#118ab2"/>
<rect x="444.4" y="911.1" rx="16" width="176" height="42" fill="#ffffff" stroke="#dbe4ef" stroke-width="1.4"/>
<text x="532.4113886712071" y="927.9922378849271" text-anchor="middle" font-size="13" font-weight="750" fill="#118ab2"><tspan x="532.4113886712071" dy="0.0">邻接矩阵 = </tspan><tspan x="532.4113886712071" dy="15.9">连接表</tspan></text>
<path class="link" d="M818.6 657.0 C735.5 705.0, 683.5 735.0, 588.2 790.0" stroke="#f97316"/>
<rect class="pill" x="458.2" y="757.0" rx="20" width="260" height="66" fill="#ffffff" stroke="#f97316" stroke-width="2.4"/>
<circle cx="483.2" cy="790.0" r="8" fill="#f97316"/>
<text x="600.2308546376021" y="794.0000000000001" text-anchor="middle" font-size="15" font-weight="820" fill="#123047"><tspan x="600.2308546376021" dy="0.0">实际的例子</tspan></text>
<path class="thin" d="M588.2 790.0 C617.5 790.0, 617.5 1027.9, 646.7 1027.9" stroke="#f97316"/>
<rect x="558.7" y="1006.9" rx="16" width="176" height="42" fill="#ffffff" stroke="#dbe4ef" stroke-width="1.4"/>
<text x="646.6715517443545" y="1031.927898577861" text-anchor="middle" font-size="13" font-weight="750" fill="#f97316"><tspan x="646.6715517443545" dy="0.0">节点 = 对象</tspan></text>
<path class="thin" d="M588.2 790.0 C499.8 790.0, 499.8 620.4, 411.4 620.4" stroke="#f97316"/>
<rect x="323.4" y="599.4" rx="16" width="176" height="42" fill="#ffffff" stroke="#dbe4ef" stroke-width="1.4"/>
<text x="411.39959875350326" y="624.4249224017506" text-anchor="middle" font-size="13" font-weight="750" fill="#f97316"><tspan x="411.39959875350326" dy="0.0">实际的例子</tspan></text>
<path class="link" d="M807.4 593.7 C712.9 577.0, 653.8 566.6, 545.5 547.5" stroke="#0f766e"/>
<rect class="pill" x="415.5" y="514.5" rx="20" width="260" height="66" fill="#ffffff" stroke="#0f766e" stroke-width="2.4"/>
<circle cx="440.5" cy="547.5" r="8" fill="#0f766e"/>
<text x="557.4692089156051" y="542.1866560399052" text-anchor="middle" font-size="15" font-weight="820" fill="#123047"><tspan x="557.4692089156051" dy="0.0">图数据结构的学</tspan><tspan x="557.4692089156051" dy="18.3">习优势</tspan></text>
<path class="thin" d="M545.5 547.5 C491.4 547.5, 491.4 767.3, 437.3 767.3" stroke="#0f766e"/>
<rect x="349.3" y="746.3" rx="16" width="176" height="42" fill="#ffffff" stroke="#dbe4ef" stroke-width="1.4"/>
<text x="437.3002749816276" y="771.3149566101156" text-anchor="middle" font-size="13" font-weight="750" fill="#0f766e"><tspan x="437.3002749816276" dy="0.0">图学习</tspan></text>
<path class="thin" d="M545.5 547.5 C532.2 547.5, 532.2 303.9, 519.0 303.9" stroke="#0f766e"/>
<rect x="431.0" y="282.9" rx="16" width="176" height="42" fill="#ffffff" stroke="#dbe4ef" stroke-width="1.4"/>
<text x="519.0093667676294" y="299.85966986668785" text-anchor="middle" font-size="13" font-weight="750" fill="#0f766e"><tspan x="519.0093667676294" dy="0.0">图数据结构的</tspan><tspan x="519.0093667676294" dy="15.9">学习优势</tspan></text>
<path class="link" d="M839.6 538.0 C777.9 464.5, 739.3 418.5, 668.6 334.2" stroke="#64748b"/>
<rect class="pill" x="538.6" y="301.2" rx="20" width="260" height="66" fill="#ffffff" stroke="#64748b" stroke-width="2.4"/>
<circle cx="563.6" cy="334.2" r="8" fill="#64748b"/>
<text x="680.5964605128459" y="338.224000477168" text-anchor="middle" font-size="15" font-weight="820" fill="#123047"><tspan x="680.5964605128459" dy="0.0">图能做什么？</tspan></text>
<path class="thin" d="M668.6 334.2 C556.5 334.2, 556.5 433.1, 444.4 433.1" stroke="#64748b"/>
<rect x="356.4" y="412.1" rx="16" width="176" height="42" fill="#ffffff" stroke="#dbe4ef" stroke-width="1.4"/>
<text x="444.4313418896388" y="437.09259808350356" text-anchor="middle" font-size="13" font-weight="750" fill="#64748b"><tspan x="444.4313418896388" dy="0.0">节点 = 对象</tspan></text>
<path class="thin" d="M668.6 334.2 C736.7 334.2, 736.7 130.6, 804.9 130.6" stroke="#64748b"/>
<rect x="716.9" y="109.6" rx="16" width="176" height="42" fill="#ffffff" stroke="#dbe4ef" stroke-width="1.4"/>
<text x="804.8888863104204" y="134.63280550495747" text-anchor="middle" font-size="13" font-weight="750" fill="#64748b"><tspan x="804.8888863104204" dy="0.0">图能做什么？</tspan></text>
</svg>