<svg xmlns="http://www.w3.org/2000/svg" width="1180" height="1344" viewBox="0 0 1180 1344">
<rect width="100%" height="100%" fill="#ffffff"/>
<style>text{font-family:-apple-system,BlinkMacSystemFont,"Segoe UI","PingFang SC","Microsoft YaHei",sans-serif}.node{fill:#fff;stroke:#d8dee8;stroke-width:1.2}.root{fill:#e8f4ff;stroke:#1a73e8}.chapter{fill:#f7f9fc}.term{fill:#fff}</style>
<rect class="node root" x="28" y="28" rx="12" width="240" height="54"/>
<text x="46" y="61" font-size="16" font-weight="700" fill="#174ea6">注意力机制及Transformer3-学生分发版-终版2026(3)</text>
<path d="M268 90 C330 90, 330 90, 382 90" stroke="#b6c2d4" fill="none"/>
<rect class="node chapter" x="382" y="70" rx="10" width="250" height="42"/>
<text x="400" y="96" font-size="14" font-weight="700" fill="#263238">第六章（三）词嵌入与预训练模型</text>
<path d="M632 90 C680 90, 680 90, 722 90" stroke="#d0d7e2" fill="none"/>
<rect class="node term" x="722" y="70" rx="10" width="320" height="40"/>
<text x="740" y="95" font-size="13" font-weight="600" fill="#172b4d">Transformer</text>
<path d="M268 172 C330 172, 330 172, 382 172" stroke="#b6c2d4" fill="none"/>
<rect class="node chapter" x="382" y="152" rx="10" width="250" height="42"/>
<text x="400" y="178" font-size="14" font-weight="700" fill="#263238">第六章（三）词嵌入与预训练模型 / 第1节 词嵌入的演进历程</text>
<path d="M632 172 C680 172, 680 172, 722 172" stroke="#d0d7e2" fill="none"/>
<rect class="node term" x="722" y="152" rx="10" width="320" height="40"/>
<text x="740" y="177" font-size="13" font-weight="600" fill="#172b4d">隐藏状态</text>
<path d="M632 172 C680 172, 680 206, 722 206" stroke="#d0d7e2" fill="none"/>
<rect class="node term" x="722" y="186" rx="10" width="320" height="40"/>
<text x="740" y="211" font-size="13" font-weight="600" fill="#172b4d">LSTM</text>
<path d="M632 172 C680 172, 680 240, 722 240" stroke="#d0d7e2" fill="none"/>
<rect class="node term" x="722" y="220" rx="10" width="320" height="40"/>
<text x="740" y="245" font-size="13" font-weight="600" fill="#172b4d">Transformer</text>
<path d="M632 172 C680 172, 680 274, 722 274" stroke="#d0d7e2" fill="none"/>
<rect class="node term" x="722" y="254" rx="10" width="320" height="40"/>
<text x="740" y="279" font-size="13" font-weight="600" fill="#172b4d">Valid</text>
<path d="M632 172 C680 172, 680 308, 722 308" stroke="#d0d7e2" fill="none"/>
<rect class="node term" x="722" y="288" rx="10" width="320" height="40"/>
<text x="740" y="313" font-size="13" font-weight="600" fill="#172b4d">Key</text>
<path d="M632 172 C680 172, 680 342, 722 342" stroke="#d0d7e2" fill="none"/>
<rect class="node term" x="722" y="322" rx="10" width="320" height="40"/>
<text x="740" y="347" font-size="13" font-weight="600" fill="#172b4d">Value</text>
<path d="M268 424 C330 424, 330 424, 382 424" stroke="#b6c2d4" fill="none"/>
<rect class="node chapter" x="382" y="404" rx="10" width="250" height="42"/>
<text x="400" y="430" font-size="14" font-weight="700" fill="#263238">第六章（三）词嵌入与预训练模型 / 第2节 预训练模型时代：BERT vs GPT</text>
<path d="M632 424 C680 424, 680 424, 722 424" stroke="#d0d7e2" fill="none"/>
<rect class="node term" x="722" y="404" rx="10" width="320" height="40"/>
<text x="740" y="429" font-size="13" font-weight="600" fill="#172b4d">Transformer</text>
<path d="M632 424 C680 424, 680 458, 722 458" stroke="#d0d7e2" fill="none"/>
<rect class="node term" x="722" y="438" rx="10" width="320" height="40"/>
<text x="740" y="463" font-size="13" font-weight="600" fill="#172b4d">Attention</text>
<path d="M632 424 C680 424, 680 492, 722 492" stroke="#d0d7e2" fill="none"/>
<rect class="node term" x="722" y="472" rx="10" width="320" height="40"/>
<text x="740" y="497" font-size="13" font-weight="600" fill="#172b4d">Batch</text>
<path d="M632 424 C680 424, 680 526, 722 526" stroke="#d0d7e2" fill="none"/>
<rect class="node term" x="722" y="506" rx="10" width="320" height="40"/>
<text x="740" y="531" font-size="13" font-weight="600" fill="#172b4d">Epoch</text>
<path d="M632 424 C680 424, 680 560, 722 560" stroke="#d0d7e2" fill="none"/>
<rect class="node term" x="722" y="540" rx="10" width="320" height="40"/>
<text x="740" y="565" font-size="13" font-weight="600" fill="#172b4d">早停</text>
<path d="M632 424 C680 424, 680 594, 722 594" stroke="#d0d7e2" fill="none"/>
<rect class="node term" x="722" y="574" rx="10" width="320" height="40"/>
<text x="740" y="599" font-size="13" font-weight="600" fill="#172b4d">Softmax</text>
<path d="M632 424 C680 424, 680 628, 722 628" stroke="#d0d7e2" fill="none"/>
<rect class="node term" x="722" y="608" rx="10" width="320" height="40"/>
<text x="740" y="633" font-size="13" font-weight="600" fill="#172b4d">标准化</text>
<path d="M632 424 C680 424, 680 662, 722 662" stroke="#d0d7e2" fill="none"/>
<rect class="node term" x="722" y="642" rx="10" width="320" height="40"/>
<text x="740" y="667" font-size="13" font-weight="600" fill="#172b4d">Key</text>
<path d="M632 424 C680 424, 680 696, 722 696" stroke="#d0d7e2" fill="none"/>
<rect class="node term" x="722" y="676" rx="10" width="320" height="40"/>
<text x="740" y="701" font-size="13" font-weight="600" fill="#172b4d">Full</text>
<path d="M632 424 C680 424, 680 730, 722 730" stroke="#d0d7e2" fill="none"/>
<rect class="node term" x="722" y="710" rx="10" width="320" height="40"/>
<text x="740" y="735" font-size="13" font-weight="600" fill="#172b4d">Padding</text>
<path d="M632 424 C680 424, 680 764, 722 764" stroke="#d0d7e2" fill="none"/>
<rect class="node term" x="722" y="744" rx="10" width="320" height="40"/>
<text x="740" y="769" font-size="13" font-weight="600" fill="#172b4d">LSTM</text>
<path d="M632 424 C680 424, 680 798, 722 798" stroke="#d0d7e2" fill="none"/>
<rect class="node term" x="722" y="778" rx="10" width="320" height="40"/>
<text x="740" y="803" font-size="13" font-weight="600" fill="#172b4d">Self-Attention</text>
<path d="M268 880 C330 880, 330 880, 382 880" stroke="#b6c2d4" fill="none"/>
<rect class="node chapter" x="382" y="860" rx="10" width="250" height="42"/>
<text x="400" y="886" font-size="14" font-weight="700" fill="#263238">第六章（三）词嵌入与预训练模型 / 第4节 附录：Transformer 架构的现代...</text>
<path d="M632 880 C680 880, 680 880, 722 880" stroke="#d0d7e2" fill="none"/>
<rect class="node term" x="722" y="860" rx="10" width="320" height="40"/>
<text x="740" y="885" font-size="13" font-weight="600" fill="#172b4d">Transformer</text>
<path d="M632 880 C680 880, 680 914, 722 914" stroke="#d0d7e2" fill="none"/>
<rect class="node term" x="722" y="894" rx="10" width="320" height="40"/>
<text x="740" y="919" font-size="13" font-weight="600" fill="#172b4d">Attention</text>
<path d="M632 880 C680 880, 680 948, 722 948" stroke="#d0d7e2" fill="none"/>
<rect class="node term" x="722" y="928" rx="10" width="320" height="40"/>
<text x="740" y="953" font-size="13" font-weight="600" fill="#172b4d">RoPE</text>
<path d="M632 880 C680 880, 680 982, 722 982" stroke="#d0d7e2" fill="none"/>
<rect class="node term" x="722" y="962" rx="10" width="320" height="40"/>
<text x="740" y="987" font-size="13" font-weight="600" fill="#172b4d">位置编码</text>
<path d="M632 880 C680 880, 680 1016, 722 1016" stroke="#d0d7e2" fill="none"/>
<rect class="node term" x="722" y="996" rx="10" width="320" height="40"/>
<text x="740" y="1021" font-size="13" font-weight="600" fill="#172b4d">Softmax</text>
<path d="M632 880 C680 880, 680 1050, 722 1050" stroke="#d0d7e2" fill="none"/>
<rect class="node term" x="722" y="1030" rx="10" width="320" height="40"/>
<text x="740" y="1055" font-size="13" font-weight="600" fill="#172b4d">Multi-Head Attention</text>
<path d="M632 880 C680 880, 680 1084, 722 1084" stroke="#d0d7e2" fill="none"/>
<rect class="node term" x="722" y="1064" rx="10" width="320" height="40"/>
<text x="740" y="1089" font-size="13" font-weight="600" fill="#172b4d">激活函数</text>
<path d="M632 880 C680 880, 680 1118, 722 1118" stroke="#d0d7e2" fill="none"/>
<rect class="node term" x="722" y="1098" rx="10" width="320" height="40"/>
<text x="740" y="1123" font-size="13" font-weight="600" fill="#172b4d">归一化</text>
<path d="M632 880 C680 880, 680 1152, 722 1152" stroke="#d0d7e2" fill="none"/>
<rect class="node term" x="722" y="1132" rx="10" width="320" height="40"/>
<text x="740" y="1157" font-size="13" font-weight="600" fill="#172b4d">Query</text>
<path d="M632 880 C680 880, 680 1186, 722 1186" stroke="#d0d7e2" fill="none"/>
<rect class="node term" x="722" y="1166" rx="10" width="320" height="40"/>
<text x="740" y="1191" font-size="13" font-weight="600" fill="#172b4d">残差连接</text>
<path d="M632 880 C680 880, 680 1220, 722 1220" stroke="#d0d7e2" fill="none"/>
<rect class="node term" x="722" y="1200" rx="10" width="320" height="40"/>
<text x="740" y="1225" font-size="13" font-weight="600" fill="#172b4d">Self-Attention</text>
<path d="M632 880 C680 880, 680 1254, 722 1254" stroke="#d0d7e2" fill="none"/>
<rect class="node term" x="722" y="1234" rx="10" width="320" height="40"/>
<text x="740" y="1259" font-size="13" font-weight="600" fill="#172b4d">MLP</text>
<path d="M632 880 C680 880, 680 1288, 722 1288" stroke="#d0d7e2" fill="none"/>
<rect class="node term" x="722" y="1268" rx="10" width="320" height="40"/>
<text x="740" y="1293" font-size="13" font-weight="600" fill="#172b4d">注意力机制</text>
</svg>